<?xml version="1.0" standalone="no"?>
<!DOCTYPE svg PUBLIC "-//W3C//DTD SVG 20010904//EN"
 "http://www.w3.org/TR/2001/REC-SVG-20010904/DTD/svg10.dtd">
<svg version="1.0" xmlns="http://www.w3.org/2000/svg"
 width="1024.000000pt" height="1024.000000pt" viewBox="0 0 1024.000000 1024.000000"
 preserveAspectRatio="xMidYMid meet">

<g transform="translate(0.000000,1024.000000) scale(0.100000,-0.100000)"
fill="#000000" stroke="none">
<path d="M0 5120 l0 -5120 5120 0 5120 0 0 5120 0 5120 -5120 0 -5120 0 0
-5120z m5192 3179 c31 -61 61 -104 73 -109 11 -4 64 -15 117 -25 131 -25 132
-31 31 -141 l-79 -85 13 -116 c7 -64 10 -120 7 -125 -10 -17 -41 -7 -139 44
l-101 52 -93 -53 c-52 -29 -102 -51 -114 -49 -25 3 -27 31 -14 173 l8 80 -75
80 c-71 75 -88 106 -67 119 5 3 58 15 118 27 l108 20 40 76 c90 171 93 172
167 32z m-1692 11 c19 -19 20 -33 20 -440 l0 -420 1600 0 1600 0 0 420 c0 407
1 421 20 440 20 20 33 20 935 20 l914 0 21 -22 20 -22 0 -3273 c0 -3260 0
-3273 -20 -3293 -20 -20 -33 -20 -3492 -20 -3216 0 -3473 1 -3490 17 -17 16
-18 131 -18 3294 l0 3278 26 20 c27 21 31 21 935 21 896 0 909 0 929 -20z
m2329 -285 c27 -47 35 -55 60 -55 17 0 42 -5 57 -10 l27 -11 -42 -43 c-43 -44
-43 -44 -36 -100 8 -64 6 -66 -60 -34 l-45 22 -45 -22 c-25 -12 -49 -22 -54
-22 -5 0 -7 27 -4 61 6 59 5 61 -32 99 -21 22 -36 43 -32 46 4 4 29 9 57 12
48 4 52 7 72 46 19 39 37 66 43 66 2 0 17 -25 34 -55z m-1349 -8 c21 -40 30
-47 55 -47 43 0 75 -11 75 -24 0 -7 -16 -28 -36 -47 -35 -33 -36 -35 -30 -91
3 -35 2 -58 -4 -58 -5 0 -30 10 -55 22 l-45 22 -45 -22 c-25 -12 -50 -22 -55
-22 -6 0 -7 24 -3 61 6 60 6 60 -32 99 -21 22 -36 43 -32 46 4 4 29 9 57 12
49 4 52 6 76 54 14 27 30 48 37 46 7 -2 23 -25 37 -51z m-509 -49 c26 -52 34
-58 81 -58 52 0 56 -16 14 -59 -34 -35 -35 -39 -29 -89 3 -28 3 -52 0 -52 -4
0 -27 10 -52 22 l-45 22 -45 -22 c-25 -12 -48 -22 -51 -22 -3 0 -3 26 1 58 6
56 6 58 -29 91 -39 38 -38 51 2 51 51 0 69 11 90 56 12 24 26 44 32 44 5 0 19
-19 31 -42z m2361 -3 c20 -42 25 -45 70 -51 27 -4 51 -11 54 -16 4 -5 -10 -26
-30 -47 -34 -35 -35 -39 -29 -89 3 -28 3 -52 0 -52 -4 0 -27 10 -52 22 l-45
22 -45 -22 c-25 -12 -48 -22 -51 -22 -3 0 -3 26 1 58 6 56 6 57 -30 89 -40 36
-39 53 3 53 51 0 69 11 90 56 12 24 26 44 32 44 6 0 20 -20 32 -45z"/>
<path d="M1730 7975 l0 -235 85 0 85 0 0 235 0 235 -85 0 -85 0 0 -235z"/>
<path d="M2336 8201 c-3 -4 -4 -111 -3 -237 l2 -229 83 -3 82 -3 0 241 0 240
-79 0 c-44 0 -82 -4 -85 -9z"/>
<path d="M7440 7970 l0 -240 85 0 85 0 0 240 0 240 -85 0 -85 0 0 -240z"/>
<path d="M7740 7970 l0 -240 85 0 85 0 0 240 0 240 -85 0 -85 0 0 -240z"/>
<path d="M8040 7970 l0 -240 85 0 85 0 0 240 0 240 -85 0 -85 0 0 -240z"/>
<path d="M8340 7970 l0 -240 85 0 85 0 0 240 0 240 -85 0 -85 0 0 -240z"/>
<path d="M2030 7970 l0 -230 85 0 85 0 0 230 0 230 -85 0 -85 0 0 -230z"/>
<path d="M2630 7965 l0 -235 85 0 85 0 0 235 0 235 -85 0 -85 0 0 -235z"/>
<path d="M2930 7965 l0 -236 83 3 82 3 3 233 2 232 -85 0 -85 0 0 -235z"/>
<path d="M3228 7969 c-2 -127 -2 -231 -1 -232 1 -1 40 -1 87 1 l86 3 0 230 0
229 -85 0 -84 0 -3 -231z"/>
<path d="M6840 7965 l0 -235 85 0 85 0 0 235 0 235 -85 0 -85 0 0 -235z"/>
<path d="M7140 7965 l0 -235 85 0 85 0 0 235 0 235 -85 0 -85 0 0 -235z"/>
<path d="M1730 4710 l0 -2890 585 0 585 0 0 1704 0 1705 22 15 c19 13 60 16
250 16 l228 0 0 1170 0 1170 -835 0 -835 0 0 -2890z m1010 2740 c18 -18 20
-33 20 -170 0 -147 -1 -152 -25 -175 -23 -24 -28 -25 -175 -25 -200 0 -190
-10 -190 192 0 207 -8 198 197 198 140 0 155 -2 173 -20z m520 0 c18 -18 20
-33 20 -179 0 -203 12 -191 -191 -191 -202 0 -192 -10 -191 196 2 205 -10 194
193 194 136 0 151 -2 169 -20z m-1042 -2 c8 -8 12 -61 12 -174 0 -207 13 -194
-197 -194 -202 0 -193 -9 -193 190 0 202 -13 190 199 190 116 0 171 -4 179
-12z m-10 -514 c21 -15 22 -21 22 -179 0 -208 13 -195 -196 -195 l-153 0 -20
26 c-19 24 -21 40 -21 169 0 129 2 145 21 169 l20 26 153 0 c121 0 156 -3 174
-16z m532 -4 c18 -18 20 -33 20 -170 0 -147 -1 -152 -25 -175 -23 -24 -28 -25
-170 -25 -142 0 -147 1 -170 25 -24 23 -25 28 -25 175 0 200 -11 190 195 190
142 0 157 -2 175 -20z m518 4 c21 -15 22 -21 22 -179 0 -207 12 -195 -191
-195 -199 0 -188 -11 -190 195 -1 206 -12 195 190 195 116 0 151 -3 169 -16z
m-1046 -521 c16 -14 18 -34 18 -173 0 -119 -3 -161 -14 -176 -13 -17 -28 -19
-176 -19 -210 0 -200 -9 -200 190 0 129 2 145 21 169 l20 26 156 0 c132 0 159
-3 175 -17z m528 -3 c18 -18 20 -33 20 -169 0 -206 10 -196 -195 -196 -205 0
-195 -10 -195 196 0 199 -10 189 195 189 142 0 157 -2 175 -20z m522 3 c16
-14 18 -34 18 -174 l0 -158 -27 -21 c-26 -20 -37 -21 -175 -18 -115 2 -151 6
-162 18 -12 12 -16 47 -17 175 -1 206 -12 195 194 195 126 0 153 -3 169 -17z
m-1050 -520 c16 -14 18 -34 18 -175 0 -209 10 -198 -189 -198 -205 0 -195 -9
-199 193 -4 208 -15 197 195 197 132 0 159 -3 175 -17z m530 0 c16 -14 18 -34
18 -174 l0 -158 -26 -20 c-24 -19 -40 -21 -171 -21 -139 0 -145 1 -168 25 -24
23 -25 28 -25 172 0 205 -12 193 192 193 136 0 164 -3 180 -17z m522 1 c13
-13 16 -43 16 -172 0 -86 -4 -162 -8 -168 -18 -27 -56 -34 -185 -34 -121 0
-137 2 -161 21 l-26 20 0 159 c0 131 3 161 16 174 23 24 325 24 348 0z m-1052
-521 c16 -14 18 -34 18 -173 0 -119 -3 -161 -14 -176 -13 -17 -30 -19 -168
-22 -144 -3 -155 -2 -181 18 l-27 21 0 155 c0 205 -11 194 197 194 132 0 159
-3 175 -17z m532 -5 c13 -18 16 -53 16 -174 l0 -153 -26 -20 c-24 -19 -40 -21
-171 -21 -139 0 -145 1 -168 25 -24 23 -25 28 -25 172 0 205 -12 193 195 193
158 0 164 -1 179 -22z m-530 -514 c13 -13 16 -43 16 -173 0 -204 8 -195 -177
-199 -148 -4 -183 4 -202 44 -15 33 -15 278 0 307 7 12 17 25 23 29 6 4 82 8
168 8 129 0 159 -3 172 -16z m528 -1 c16 -14 18 -34 18 -170 0 -207 0 -208
-230 -201 -164 4 -160 -1 -160 201 0 126 3 153 17 169 14 16 34 18 176 18 135
0 163 -3 179 -17z m-547 -506 c11 -5 23 -15 27 -21 4 -6 8 -80 8 -165 0 -130
-3 -157 -17 -173 -14 -16 -34 -18 -172 -18 -86 0 -161 4 -167 8 -27 18 -34 56
-34 192 0 134 1 142 23 164 23 23 30 24 168 23 79 0 153 -4 164 -10z m539 -8
l26 -20 0 -155 c0 -205 12 -194 -199 -194 -203 0 -191 -12 -191 193 0 144 1
149 25 172 23 24 29 25 168 25 131 0 147 -2 171 -21z m-526 -515 c21 -15 22
-21 22 -175 0 -210 11 -199 -190 -199 -147 0 -152 1 -175 25 -24 23 -25 29
-25 168 0 131 2 147 21 171 l20 26 153 0 c121 0 156 -3 174 -16z m532 -4 c18
-18 20 -33 20 -174 l0 -155 -26 -20 c-24 -19 -40 -21 -171 -21 -139 0 -145 1
-168 25 -24 23 -25 28 -25 175 0 200 -11 190 195 190 142 0 157 -2 175 -20z
m-530 -520 c18 -18 20 -33 20 -175 0 -206 11 -195 -195 -195 -206 0 -195 -10
-195 190 0 206 -6 200 200 200 137 0 152 -2 170 -20z m530 -2 c18 -20 20 -35
20 -169 0 -133 -2 -149 -21 -173 l-20 -26 -150 0 c-146 0 -151 1 -174 25 -24
23 -25 28 -25 171 0 202 -8 194 196 194 145 0 154 -1 174 -22z m-532 -514 c21
-15 22 -21 22 -176 0 -136 -3 -164 -17 -180 -14 -16 -34 -18 -174 -18 l-158 0
-20 26 c-19 24 -21 40 -21 171 0 139 1 145 25 168 23 24 28 25 172 25 118 0
153 -3 171 -16z m527 -9 c24 -23 25 -29 25 -168 0 -131 -2 -147 -21 -171 l-20
-26 -150 0 c-146 0 -151 1 -174 25 -24 23 -25 28 -25 173 0 201 -9 192 191
192 146 0 151 -1 174 -25z m-523 -512 c16 -14 18 -34 18 -171 0 -131 -3 -158
-17 -174 -14 -16 -34 -18 -179 -18 -208 0 -197 -11 -192 193 4 197 -6 187 196
187 131 0 158 -3 174 -17z m526 1 c21 -15 22 -21 22 -168 0 -209 11 -197 -194
-199 -206 -2 -196 -12 -196 194 0 199 -10 189 193 189 122 0 157 -3 175 -16z"/>
<path d="M2490 7270 l0 -70 70 0 70 0 0 70 0 70 -70 0 -70 0 0 -70z"/>
<path d="M3020 7270 l0 -70 70 0 70 0 0 70 0 70 -70 0 -70 0 0 -70z"/>
<path d="M1970 7270 l0 -70 70 0 71 0 -2 70 -2 70 -68 0 -69 0 0 -70z"/>
<path d="M1967 6823 c-2 -4 -3 -37 -2 -73 l1 -65 69 0 70 0 0 70 0 70 -67 3
c-36 2 -68 -1 -71 -5z"/>
<path d="M2490 6760 l0 -70 70 0 70 0 0 70 0 70 -70 0 -70 0 0 -70z"/>
<path d="M3020 6755 l0 -75 70 0 70 0 0 75 0 75 -70 0 -70 0 0 -75z"/>
<path d="M1970 6240 l0 -70 65 0 65 0 0 70 0 70 -65 0 -65 0 0 -70z"/>
<path d="M2490 6240 l0 -70 70 0 70 0 0 70 0 70 -70 0 -70 0 0 -70z"/>
<path d="M3020 6240 l0 -70 70 0 70 0 0 70 0 70 -70 0 -70 0 0 -70z"/>
<path d="M1970 5720 l0 -70 69 0 69 0 0 70 0 70 -69 0 -69 0 0 -70z"/>
<path d="M2490 5720 l0 -70 70 0 70 0 0 70 0 70 -70 0 -70 0 0 -70z"/>
<path d="M3020 5720 l0 -70 70 0 70 0 0 70 0 70 -70 0 -70 0 0 -70z"/>
<path d="M1970 5200 l0 -70 71 0 71 0 -4 68 -3 67 -67 3 -68 3 0 -71z"/>
<path d="M2490 5200 l0 -70 75 0 75 0 -3 70 -2 70 -72 0 -73 0 0 -70z"/>
<path d="M1970 4680 l0 -70 60 0 c33 0 63 -1 68 -2 4 -2 7 29 7 67 l0 70 -67
3 -68 3 0 -71z"/>
<path d="M2490 4680 l0 -70 70 0 70 0 0 70 0 70 -70 0 -70 0 0 -70z"/>
<path d="M1970 4160 l0 -70 70 0 70 0 0 70 0 70 -70 0 -70 0 0 -70z"/>
<path d="M2490 4160 l0 -70 70 0 70 0 0 70 0 70 -70 0 -70 0 0 -70z"/>
<path d="M1970 3645 l0 -76 68 3 67 3 3 73 3 72 -71 0 -70 0 0 -75z"/>
<path d="M2490 3645 l0 -75 70 0 70 0 0 75 0 75 -70 0 -70 0 0 -75z"/>
<path d="M1970 3125 l0 -75 70 0 71 0 -3 73 -3 72 -67 3 -68 3 0 -76z"/>
<path d="M2497 3193 c-4 -3 -7 -37 -7 -75 l0 -68 70 0 70 0 0 75 0 75 -63 0
c-35 0 -67 -3 -70 -7z"/>
<path d="M1970 2600 l0 -71 67 3 68 3 2 68 2 67 -69 0 -70 0 0 -70z"/>
<path d="M2497 2674 c-4 -4 -7 -38 -7 -76 l0 -68 75 0 76 0 -3 73 -3 72 -65 3
c-36 2 -69 0 -73 -4z"/>
<path d="M1963 2090 l-1 -70 74 0 74 0 0 70 0 70 -72 0 -73 0 -2 -70z"/>
<path d="M2490 2090 l0 -70 70 0 70 0 0 70 0 70 -70 0 -70 0 0 -70z"/>
<path d="M6840 6430 l0 -1170 229 0 c216 0 230 -1 255 -21 l26 -20 0 -1700 0
-1699 580 0 580 0 0 2890 0 2890 -835 0 -835 0 0 -1170z m490 1020 c18 -18 20
-33 20 -175 0 -142 -2 -157 -20 -175 -18 -18 -33 -20 -175 -20 -142 0 -157 2
-175 20 -18 18 -20 33 -20 175 0 142 2 157 20 175 18 18 33 20 175 20 142 0
157 -2 175 -20z m518 4 c21 -15 22 -21 22 -174 l0 -159 -26 -20 c-24 -19 -40
-21 -170 -21 -194 0 -184 -10 -184 199 0 202 -11 191 190 191 116 0 150 -3
168 -16z m531 -10 c19 -24 21 -40 21 -172 0 -199 7 -192 -192 -192 -145 0
-150 1 -173 25 -24 23 -25 28 -25 175 0 200 -10 190 194 190 l155 0 20 -26z
m-1049 -514 c18 -18 20 -33 20 -175 0 -206 10 -195 -190 -195 -147 0 -152 1
-175 25 -24 23 -25 28 -25 175 0 200 -11 190 195 190 142 0 157 -2 175 -20z
m518 4 c21 -15 22 -21 22 -175 0 -210 10 -199 -188 -199 -204 0 -192 -12 -192
195 0 207 -12 195 190 195 116 0 150 -3 168 -16z m532 -4 c18 -18 20 -33 20
-175 0 -142 -2 -157 -20 -175 -18 -18 -33 -20 -175 -20 -142 0 -157 2 -175 20
-18 18 -20 33 -20 175 0 142 2 157 20 175 18 18 33 20 175 20 142 0 157 -2
175 -20z m-1046 -522 c13 -18 16 -53 16 -174 l0 -153 -26 -20 c-24 -19 -40
-21 -169 -21 -129 0 -145 2 -169 21 l-26 20 0 156 c0 132 3 159 17 175 14 16
34 18 179 18 157 0 163 -1 178 -22z m514 6 c21 -15 22 -21 22 -174 l0 -159
-26 -20 c-24 -19 -40 -21 -164 -21 -124 0 -140 2 -164 21 l-26 20 0 156 c0
132 3 159 17 175 14 16 34 18 167 18 121 0 156 -3 174 -16z m532 -4 c18 -18
20 -33 20 -169 0 -206 10 -196 -195 -196 -205 0 -195 -10 -195 198 0 126 3
153 17 169 14 16 34 18 175 18 145 0 160 -2 178 -20z m-1046 -522 c13 -18 16
-53 16 -169 0 -202 8 -193 -189 -197 -150 -3 -151 -3 -176 22 -25 25 -25 28
-25 177 0 128 3 155 17 171 14 16 34 18 179 18 157 0 163 -1 178 -22z m520 6
c13 -13 16 -43 16 -174 l0 -159 -26 -20 c-24 -19 -40 -21 -168 -21 -198 0
-186 -13 -186 200 0 150 2 170 18 179 9 6 86 11 174 11 129 0 159 -3 172 -16z
m530 -6 c13 -18 16 -53 16 -171 0 -145 -1 -148 -25 -173 -25 -25 -26 -25 -176
-22 -198 4 -189 -5 -189 201 0 126 3 153 17 169 14 16 34 18 179 18 157 0 163
-1 178 -22z m-532 -515 c16 -14 18 -34 18 -173 0 -206 11 -195 -196 -194 -107
1 -159 5 -169 14 -23 19 -22 326 2 352 14 16 34 18 171 18 131 0 158 -3 174
-17z m528 -3 c18 -18 20 -33 20 -169 0 -202 11 -191 -193 -192 -210 -1 -197
-13 -197 188 0 204 -11 193 195 193 142 0 157 -2 175 -20z m-528 -517 c16 -14
18 -34 18 -170 0 -140 -2 -155 -20 -173 -18 -18 -33 -20 -173 -20 -134 0 -156
2 -170 18 -22 24 -29 320 -8 345 20 25 325 25 353 0z m532 -5 c13 -18 16 -52
16 -160 0 -75 -4 -148 -10 -162 -14 -38 -65 -48 -214 -44 -171 4 -166 -2 -166
197 0 203 -12 191 195 191 158 0 164 -1 179 -22z m-527 -513 c9 -14 13 -60 13
-174 0 -130 -3 -157 -17 -173 -14 -16 -34 -18 -173 -18 -140 0 -159 2 -174 19
-14 16 -16 40 -14 182 4 203 -10 190 202 185 131 -3 151 -5 163 -21z m527 -7
c13 -18 16 -53 16 -170 0 -198 10 -188 -195 -188 -205 0 -195 -10 -195 188 0
204 -12 192 195 192 158 0 164 -1 179 -22z m-536 -504 c21 -15 22 -21 22 -179
0 -206 11 -195 -183 -195 -133 0 -171 7 -189 34 -4 6 -8 79 -8 161 0 83 4 155
8 161 18 27 53 33 187 34 111 0 145 -3 163 -16z m531 -10 c19 -24 21 -40 21
-169 0 -197 8 -189 -189 -193 -150 -3 -151 -3 -176 22 -25 25 -25 28 -25 176
0 200 -10 190 194 190 l155 0 20 -26z m-531 -510 c21 -15 22 -21 22 -179 0
-208 12 -195 -194 -195 -125 0 -152 3 -168 17 -16 14 -18 34 -18 179 0 206
-12 194 190 194 116 0 150 -3 168 -16z m533 -5 c19 -19 20 -30 17 -181 -3
-144 -5 -161 -22 -174 -15 -11 -57 -14 -173 -14 -204 0 -193 -11 -193 195 0
142 2 157 20 175 18 18 33 20 175 20 143 0 157 -2 176 -21z m-533 -515 c21
-15 22 -21 22 -171 0 -212 8 -203 -193 -203 -126 0 -153 3 -169 17 -16 14 -18
34 -18 176 0 135 3 163 17 179 14 16 34 18 167 18 121 0 156 -3 174 -16z m532
-4 c18 -18 20 -33 20 -169 0 -135 -2 -151 -21 -175 l-20 -26 -154 0 -154 0
-20 26 c-19 24 -21 40 -21 175 0 199 -10 189 195 189 142 0 157 -2 175 -20z
m-528 -517 c16 -14 18 -34 18 -168 0 -208 10 -197 -187 -199 -204 -1 -193 -12
-193 195 0 130 3 160 16 173 24 24 319 23 346 -1z m532 -5 c13 -18 16 -52 16
-168 0 -202 12 -190 -195 -190 -208 0 -195 -12 -195 194 0 125 3 152 17 168
14 16 34 18 179 18 157 0 163 -1 178 -22z"/>
<path d="M7080 7270 l0 -70 70 0 70 0 0 70 0 70 -70 0 -70 0 0 -70z"/>
<path d="M7610 7270 l0 -70 70 0 70 0 0 70 0 70 -70 0 -70 0 0 -70z"/>
<path d="M8130 7270 l0 -70 70 0 70 0 0 70 0 70 -70 0 -70 0 0 -70z"/>
<path d="M7087 6823 c-4 -3 -7 -37 -7 -75 l0 -68 70 0 70 0 0 75 0 75 -63 0
c-35 0 -67 -3 -70 -7z"/>
<path d="M7610 6760 l0 -70 70 0 70 0 0 70 0 70 -70 0 -70 0 0 -70z"/>
<path d="M8130 6760 l0 -70 73 0 72 0 0 70 0 70 -72 0 -73 0 0 -70z"/>
<path d="M7080 6240 l0 -70 70 0 70 0 0 70 0 70 -70 0 -70 0 0 -70z"/>
<path d="M7610 6240 l0 -70 70 0 70 0 0 70 0 70 -70 0 -70 0 0 -70z"/>
<path d="M8130 6235 l0 -76 73 3 72 3 3 73 3 72 -76 0 -75 0 0 -75z"/>
<path d="M7080 5720 l0 -70 70 0 70 0 0 70 0 70 -70 0 -70 0 0 -70z"/>
<path d="M7610 5720 l0 -70 70 0 70 0 0 70 0 70 -70 0 -70 0 0 -70z"/>
<path d="M8130 5720 l0 -70 70 0 70 0 0 70 0 70 -70 0 -70 0 0 -70z"/>
<path d="M7610 5200 l0 -70 70 0 70 0 0 70 0 70 -70 0 -70 0 0 -70z"/>
<path d="M8137 5263 c-4 -3 -7 -35 -7 -70 l0 -63 70 0 70 0 0 70 0 70 -63 0
c-35 0 -67 -3 -70 -7z"/>
<path d="M7610 4680 l0 -70 70 0 70 0 0 70 0 70 -70 0 -70 0 0 -70z"/>
<path d="M8130 4681 l0 -69 70 -4 70 -3 0 73 0 72 -70 0 -70 0 0 -69z"/>
<path d="M7610 4160 l0 -70 70 0 70 0 0 70 0 70 -70 0 -70 0 0 -70z"/>
<path d="M8130 4160 l0 -70 70 0 70 0 0 70 0 70 -70 0 -70 0 0 -70z"/>
<path d="M7610 3645 l0 -75 70 0 70 0 0 75 0 75 -70 0 -70 0 0 -75z"/>
<path d="M8130 3645 l0 -75 76 0 76 0 -4 73 -3 72 -73 3 -72 3 0 -76z"/>
<path d="M7610 3125 l0 -75 70 0 70 0 0 75 0 75 -70 0 -70 0 0 -75z"/>
<path d="M8135 3192 c-3 -3 -5 -36 -5 -74 l0 -68 70 0 70 0 0 76 0 75 -65 -2
c-36 -1 -67 -4 -70 -7z"/>
<path d="M7610 2605 l0 -75 70 0 70 0 0 75 0 75 -70 0 -70 0 0 -75z"/>
<path d="M8130 2605 l0 -75 75 0 76 0 -3 73 -3 72 -72 3 -73 3 0 -76z"/>
<path d="M7610 2090 l0 -70 70 0 70 0 0 70 0 70 -70 0 -70 0 0 -70z"/>
<path d="M8130 2090 l0 -70 70 0 70 0 0 70 0 70 -70 0 -70 0 0 -70z"/>
<path d="M3883 7323 l-363 -3 0 -310 0 -310 365 0 365 0 0 315 c0 173 -1 314
-2 313 -2 -2 -166 -4 -365 -5z"/>
<path d="M4380 7013 l0 -313 340 0 340 0 0 310 0 309 -340 3 -340 3 0 -312z"/>
<path d="M5184 7321 c-2 -2 -4 -143 -4 -313 l0 -308 345 0 345 0 0 313 0 312
-341 0 c-187 0 -343 -2 -345 -4z"/>
<path d="M5990 7013 l0 -313 365 0 365 0 -2 310 -3 311 -363 2 -362 2 0 -312z"/>
<path d="M3520 6270 l0 -310 365 0 365 0 0 310 0 310 -365 0 -365 0 0 -310z"/>
<path d="M4380 6270 l0 -310 340 0 340 0 0 310 0 310 -340 0 -340 0 0 -310z"/>
<path d="M5180 6270 l0 -310 345 0 345 0 0 310 0 310 -345 0 -345 0 0 -310z"/>
<path d="M5990 6270 l0 -310 365 0 365 0 0 310 0 310 -365 0 -365 0 0 -310z"/>
<path d="M3520 5545 l0 -285 365 0 365 0 0 285 0 285 -365 0 -365 0 0 -285z"/>
<path d="M4380 5540 l0 -290 340 0 340 0 0 290 0 290 -340 0 -340 0 0 -290z"/>
<path d="M5180 5540 l0 -290 345 0 345 0 0 290 0 290 -345 0 -345 0 0 -290z"/>
<path d="M5990 5545 l0 -285 365 0 365 0 0 285 0 285 -365 0 -365 0 0 -285z"/>
<path d="M3020 3475 l0 -1655 230 0 230 0 0 665 c0 652 0 665 20 685 27 27 56
25 85 -5 l25 -24 0 -661 0 -660 285 0 284 0 3 934 c3 902 4 935 22 955 l19 21
899 0 c885 0 898 0 918 -20 20 -20 20 -33 20 -955 l0 -935 285 0 285 0 0 660
0 661 25 24 c29 30 58 32 85 5 20 -20 20 -33 20 -685 l0 -665 235 0 235 0 0
1655 0 1655 -2105 0 -2105 0 0 -1655z"/>
<path d="M4310 2715 l0 -895 375 0 375 0 0 895 0 895 -375 0 -375 0 0 -895z
m652 128 c25 -23 27 -177 1 -205 -20 -22 -51 -23 -75 -1 -25 23 -27 177 -1
205 20 22 51 23 75 1z"/>
<path d="M5182 2718 l3 -893 373 -3 372 -2 0 895 0 895 -375 0 -375 0 2 -892z"/>
</g>
</svg>
